<svg xmlns="http://www.w3.org/2000/svg" width="42" height="42">
  <path fill="#38bdf8" d="M20.999499 8.500006c-5.556 0-9.028002 2.777991-10.417001 8.332989 2.084001-2.777008 4.513999-3.820006 7.292001-3.124989 1.584998.397002 2.717998 1.545978 3.970999 2.818998C23.888499 18.6 26.252499 21 31.4155 21c5.556 0 9.027998-2.777991 10.417001-8.332989-2.083003 2.77697-4.514003 3.818986-7.291003 3.124989-1.585002-.397002-2.717998-1.546016-3.972-2.820019-2.043001-2.071975-4.407001-4.471975-9.569999-4.471975ZM10.584497 21C5.0274992 21 1.5564982 23.775987.16749911 29.332006 2.2504988 26.554016 4.6814985 25.512 7.4594967 26.207017c1.584.395981 2.7170003 1.545978 3.9710023 2.817978 2.042997 2.074999 4.406997 4.474999 9.569998 4.474999 5.556 0 9.027999-2.777008 10.417002-8.332989-2.084001 2.77799-4.513999 3.820006-7.292001 3.124989-1.585002-.395982-2.717001-1.545978-3.970999-2.818999C18.111498 23.4 15.747498 21 10.584497 21Z"/>
</svg>
